<svg xmlns="http://www.w3.org/2000/svg" width="22" height="20" fill="none" viewBox="0 0 22 20">
    <path fill="#FAFAFA" fill-rule="evenodd"
        d="M.835.293a1 1 0 0 1 1.414 0l3.04 3.04A10.955 10.955 0 0 1 10.542 2c4.927 0 9.095 3.238 10.496 7.7a1 1 0 0 1 0 .6 11.013 11.013 0 0 1-3.551 5.231l2.762 2.762a1 1 0 0 1-1.414 1.414l-18-18a1 1 0 0 1 0-1.414Zm15.229 13.815A9.023 9.023 0 0 0 19.03 10 9.004 9.004 0 0 0 6.778 4.822L8.51 6.554a4 4 0 0 1 5.478 5.478l2.076 2.076Zm-3.59-3.59a2 2 0 0 0-2.45-2.45l2.45 2.45ZM3.167 6.174a1 1 0 0 1 .194 1.4A8.977 8.977 0 0 0 2.054 10a9.004 9.004 0 0 0 10.176 5.842 1 1 0 0 1 .373 1.965c-.668.127-1.357.193-2.06.193-4.928 0-9.096-3.239-10.497-7.7a1 1 0 0 1 0-.6 10.97 10.97 0 0 1 1.72-3.332 1 1 0 0 1 1.4-.194Z"
        clip-rule="evenodd" />
</svg>
  