<svg xmlns="http://www.w3.org/2000/svg" width="20" height="20" fill="none" viewBox="0 0 20 20">
  <path fill="#3A3A45" fill-rule="evenodd" d="M10 2a8 8 0 1 0 0 16 8 8 0 0 0 0-16ZM0 10C0 4.477 4.477 0 10 0s10 4.477 10 10-4.477 10-10 10S0 15.523 0 10Zm10-4c-1.472 0-2.528.706-2.868 1.426a1 1 0 1 1-1.809-.852C6.082 4.964 7.99 4 10 4c1.3 0 2.515.394 3.428 1.079C14.342 5.764 15 6.786 15 8c0 2.07-1.834 3.508-3.817 3.889a.31.31 0 0 0-.162.083A.107.107 0 0 0 11 12a1 1 0 0 1-2 0c0-1.142.909-1.904 1.805-2.075C12.279 9.642 13 8.73 13 8c0-.443-.237-.92-.771-1.321C11.694 6.278 10.909 6 10 6Zm-1 9a1 1 0 0 1 1-1h.01a1 1 0 1 1 0 2H10a1 1 0 0 1-1-1Z" clip-rule="evenodd"/>
</svg>
