<svg xmlns="http://www.w3.org/2000/svg" width="20" height="19" fill="none" viewBox="0 0 20 19">
  <path fill="#7C3AED" fill-rule="evenodd" d="M0 3a3 3 0 0 1 3-3h14a3 3 0 0 1 3 3v8a3 3 0 0 1-3 3h-4.586l-4.707 4.707A1 1 0 0 1 6 18v-4H3a3 3 0 0 1-3-3V3Zm3-1a1 1 0 0 0-1 1v8a1 1 0 0 0 1 1h4a1 1 0 0 1 1 1v2.586l3.293-3.293A1 1 0 0 1 12 12h5a1 1 0 0 0 1-1V3a1 1 0 0 0-1-1H3Zm2 5a1 1 0 0 1 1-1h.01a1 1 0 0 1 0 2H6a1 1 0 0 1-1-1Zm4 0a1 1 0 0 1 1-1h.01a1 1 0 1 1 0 2H10a1 1 0 0 1-1-1Zm4 0a1 1 0 0 1 1-1h.01a1 1 0 1 1 0 2H14a1 1 0 0 1-1-1Z" clip-rule="evenodd"/>
</svg>
