<svg xmlns="http://www.w3.org/2000/svg" width="23" height="18" fill="none" viewBox="0 0 23 18">
  <path fill="#3A3A45" fill-rule="evenodd" d="M11.34 2a2 2 0 1 0 0 4 2 2 0 0 0 0-4Zm-4 2a4 4 0 1 1 8 0 4 4 0 0 1-8 0Zm-3 2a1 1 0 1 0 0 2 1 1 0 0 0 0-2Zm-3 1a3 3 0 1 1 6 0 3 3 0 0 1-6 0Zm17-1a1 1 0 1 0 0 2 1 1 0 0 0 0-2Zm-3 1a3 3 0 1 1 6 0 3 3 0 0 1-6 0Zm-4 4a4.002 4.002 0 0 0-4 4v1h8v-1a4.002 4.002 0 0 0-4-4Zm6 5h3v-1a2 2 0 0 0-3.214-1.59c.14.507.213 1.04.213 1.59v1Zm-1.072-4.422A5.993 5.993 0 0 0 11.339 9a5.993 5.993 0 0 0-4.928 2.578A4 4 0 0 0 .34 15v2a1 1 0 0 0 1 1h20a1 1 0 0 0 1-1v-2a4 4 0 0 0-6.072-3.422ZM5.553 13.41A2 2 0 0 0 2.34 15v1h3v-1c0-.55.074-1.083.213-1.59Z" clip-rule="evenodd"/>
</svg>
