<svg xmlns="http://www.w3.org/2000/svg" width="20" height="20" fill="none" viewBox="0 0 20 20">
  <path fill="#FAFAFA" fill-rule="evenodd" d="M10 0a1 1 0 0 1 1 1v1a1 1 0 1 1-2 0V1a1 1 0 0 1 1-1ZM2.929 2.929a1 1 0 0 1 1.414 0l.707.707A1 1 0 1 1 3.636 5.05l-.707-.707a1 1 0 0 1 0-1.414Zm14.142 0a1 1 0 0 1 0 1.414l-.707.707a1 1 0 1 1-1.414-1.414l.707-.707a1 1 0 0 1 1.414 0ZM10 7a3 3 0 1 0 0 6 3 3 0 0 0 0-6Zm-5 3a5 5 0 1 1 10 0 5 5 0 0 1-10 0Zm-5 0a1 1 0 0 1 1-1h1a1 1 0 1 1 0 2H1a1 1 0 0 1-1-1Zm17 0a1 1 0 0 1 1-1h1a1 1 0 1 1 0 2h-1a1 1 0 0 1-1-1Zm-2.05 4.95a1 1 0 0 1 1.414 0l.707.707a1 1 0 0 1-1.414 1.414l-.707-.707a1 1 0 0 1 0-1.414Zm-11.314 0a1 1 0 0 1 1.414 1.414l-.707.707a1 1 0 0 1-1.414-1.414l.707-.707ZM10 17a1 1 0 0 1 1 1v1a1 1 0 1 1-2 0v-1a1 1 0 0 1 1-1Z" clip-rule="evenodd"/>
</svg>
