<svg xmlns="http://www.w3.org/2000/svg" width="18" height="20" fill="none" viewBox="0 0 18 20">
    <path fill="#FAFAFA" fill-rule="evenodd"
        d="M5 2a2 2 0 0 1 2-2h4a2 2 0 0 1 2 2v2h4a1 1 0 1 1 0 2h-.069l-.8 11.214A3 3 0 0 1 13.137 20H4.862a3 3 0 0 1-2.992-2.786L1.069 6H1a1 1 0 0 1 0-2h4V2Zm2 2h4V2H7v2ZM3.074 6l.79 11.071a1 1 0 0 0 .998.929h8.276a1 1 0 0 0 .997-.929L14.926 6H3.074ZM7 8a1 1 0 0 1 1 1v6a1 1 0 1 1-2 0V9a1 1 0 0 1 1-1Zm4 0a1 1 0 0 1 1 1v6a1 1 0 1 1-2 0V9a1 1 0 0 1 1-1Z"
        clip-rule="evenodd" />
</svg>
  